<?xml version="1.0"?>
<svg xmlns="http://www.w3.org/2000/svg" viewBox="0 0 192 192" width="512" height="512"><title>03-web</title><g id="_03-web" data-name="03-web"><path d="M184,0H8A8,8,0,0,0,0,8V184a8,8,0,0,0,8,8H184a8,8,0,0,0,8-8V8A8,8,0,0,0,184,0ZM16,16H176V32H16Zm0,160V48H176V176Z"/><circle cx="160" cy="24" r="8"/><circle cx="136" cy="24" r="8"/><circle cx="112" cy="24" r="8"/><path d="M133.706,108H136a8,8,0,0,0,7.155-4.422l8-16-14.31-7.156L131.056,92h-5.274a43.686,43.686,0,0,0-7.286-7.665,24,24,0,1,0-44.992,0A43.692,43.692,0,0,0,66.218,92H60.944L55.155,80.422l-14.31,7.156,8,16A8,8,0,0,0,56,108h2.294a55.428,55.428,0,0,0-1.728,8H40v16H56.566a55.428,55.428,0,0,0,1.728,8H56a8,8,0,0,0-7.155,4.422l-8,16,14.31,7.156L60.944,156h5.274c7.329,9.812,17.963,16,29.782,16s22.453-6.188,29.782-16h5.274l5.789,11.578,14.31-7.156-8-16A8,8,0,0,0,136,140h-2.294a55.428,55.428,0,0,0,1.728-8H152V116H135.434A55.428,55.428,0,0,0,133.706,108ZM88,76a8,8,0,0,1,16,0,8.335,8.335,0,0,1-.06.953,33.549,33.549,0,0,0-15.879,0A8.113,8.113,0,0,1,88,76Zm8,80c-13.234,0-24-14.355-24-32S82.766,92,96,92s24,14.355,24,32S109.233,156,96,156Z"/></g></svg>
